<?xml version="1.0" encoding="utf-8"?>
<!-- Generator: Adobe Illustrator 19.0.0, SVG Export Plug-In . SVG Version: 6.00 Build 0)  -->
<svg version="1.1" id="Layer_1" xmlns="http://www.w3.org/2000/svg" xmlns:xlink="http://www.w3.org/1999/xlink" x="0px" y="0px"
	 viewBox="-165 361 281 72" enable-background="new -165 361 281 72" xml:space="preserve">
<g transform="translate(0.5 0.5)">
	<path fill="#F7CE53" d="M-165,396.5c0-19.6,16.3-35.5,36.3-35.5s36.3,15.9,36.3,35.5s-16.3,35.5-36.3,35.5S-165,416.1-165,396.5z
		 M-163,396.5c0,18.5,15.4,33.5,34.3,33.5s34.3-15,34.3-33.5s-15.4-33.5-34.3-33.5S-163,378-163,396.5z M-108.1,406.6
		c-0.6,1.2-1.4,2.4-2.2,3.5c-4.6,2.6-9,5.4-13.3,8.5c-1.4,0.3-2.7,0.5-4.1,0.5C-121.5,414.5-115,410.3-108.1,406.6z M-139.8,416.4
		c10.4-8.5,21.9-15.6,34.2-21.2c0,0.3,0,0.6,0,0.9c0,0.4,0,0.9,0,1.3c-11.5,5.3-22.3,12-32.2,19.9
		C-138.5,417.1-139.1,416.8-139.8,416.4L-139.8,416.4z M69.5,403.7c0-6,4.9-10.9,10.9-10.9c6,0,10.8,4.8,10.9,10.8l0,0v10.9h-2v-4.5
		c-2,2.9-5.3,4.6-8.9,4.6C74.4,414.5,69.5,409.7,69.5,403.7L69.5,403.7z M71.5,403.7c0,4.9,4,8.9,8.9,8.9c4.9,0,8.9-4,8.9-8.9
		c0-4.9-4-8.9-8.9-8.9C75.5,394.8,71.5,398.8,71.5,403.7L71.5,403.7z M48.3,408.7c-1.9,3.6-5.6,5.8-9.6,5.8c-6,0-10.9-4.9-10.9-10.9
		c0-6,4.9-10.9,10.9-10.9c4,0,7.7,2.2,9.6,5.8c1.9-3.6,5.6-5.8,9.6-5.8c6,0,10.9,4.9,10.9,10.9c0,6-4.9,10.9-10.9,10.9
		C53.9,414.5,50.2,412.3,48.3,408.7L48.3,408.7z M57.9,412.5c4.9,0,8.9-4,8.9-8.9c0-4.9-4-8.9-8.9-8.9c-4,0-7.6,2.7-8.6,6.6
		c0.2,0.7,0.2,1.5,0.2,2.2c0,0.7-0.1,1.5-0.2,2.2C50.3,409.8,53.9,412.5,57.9,412.5L57.9,412.5z M29.8,403.7c0,4.9,4,8.9,8.9,8.9
		c4,0,7.6-2.7,8.6-6.6c-0.2-0.7-0.2-1.5-0.2-2.2c0-0.7,0.1-1.5,0.2-2.2c-1-3.9-4.5-6.6-8.6-6.6C33.8,394.8,29.8,398.8,29.8,403.7
		L29.8,403.7z M4.7,403.7c0-0.9,0.1-1.7,0.3-2.6v-22.7h2V397c2.1-2.6,5.2-4.2,8.6-4.2c6,0,10.9,4.9,10.9,10.9
		c0,6-4.9,10.9-10.9,10.9C9.6,414.5,4.7,409.7,4.7,403.7L4.7,403.7z M15.6,412.5c4.9,0,8.9-4,8.9-8.9c0-4.9-4-8.9-8.9-8.9
		c-4,0-7.5,2.7-8.6,6.5v2.8H6.7C6.9,408.8,10.8,412.5,15.6,412.5L15.6,412.5z M-56.9,403.7c0-6,4.9-10.9,10.9-10.9
		c6,0,10.9,4.9,10.9,10.9c0,0.8-0.1,1.6-0.3,2.4v8.3h-2v-4.1c-2.1,2.7-5.2,4.2-8.6,4.2C-52,414.5-56.9,409.7-56.9,403.7L-56.9,403.7
		z M-54.9,403.7c0,4.9,4,8.9,8.9,8.9c4,0,7.6-2.7,8.6-6.7v-2.3h0.3c-0.1-4.9-4-8.8-8.9-8.8C-50.9,394.8-54.9,398.8-54.9,403.7
		L-54.9,403.7z M-80,403.7c0-0.6,0.1-1.2,0.2-1.8v-23.4h2v18.8c2-2.8,5.3-4.4,8.7-4.4c6,0,10.9,4.9,10.9,10.9
		c0,6-4.9,10.9-10.9,10.9C-75.1,414.5-80,409.7-80,403.7L-80,403.7z M-69.1,412.5c4.9,0,8.9-4,8.9-8.9c0-4.9-4-8.9-8.9-8.9
		c-4.3,0-7.9,3-8.7,7.2v2.1H-78C-77.7,408.8-73.8,412.5-69.1,412.5L-69.1,412.5z M113,414.4v-10.6c0-4.9-4-8.9-8.9-8.9
		c-4.9,0-8.9,4-8.9,8.9l0,0v10.6h-2v-10.9l0,0c0.2-5.9,5-10.6,10.9-10.6c5.9,0,10.7,4.7,10.9,10.6l0,0v10.9L113,414.4z M1.1,414.4
		v-10.9h0.2c-0.2-4.8-4.1-8.6-8.9-8.6c-2.4,0-4.7,1-6.3,2.7c1.3,1.8,1.9,4,1.9,6.2h-0.2v10.6h-2v-10.9h0.2c-0.2-4.8-4.1-8.6-8.9-8.6
		c-4.8,0-8.7,3.8-8.9,8.6h0.2v10.9h-2v-10.6h-0.2c0-6,4.9-10.9,10.9-10.9c2.9,0,5.6,1.1,7.7,3.2c2-2,4.8-3.2,7.6-3.2
		c6,0,10.9,4.9,10.9,10.9H3.1v10.6L1.1,414.4z M-149.4,406.7c1.3,0.7,2.6,1.4,4,2.2c-0.1,0.1-0.2,0.2-0.3,0.3
		c2.2-1.8,4.5-3.5,6.7-5.1c-4.5-2.5-8.7-4.7-12.7-6.5c0-0.4,0-0.7,0-1.1c0-0.4,0-0.7,0-1.1c5,2.2,9.8,4.7,14.5,7.4
		c2.3-1.6,4.5-3,6.7-4.4c-6.4-3.7-13-7-19.8-9.8c0.2-0.6,0.5-1.2,0.8-1.8c3.1,1.3,6.5,2.8,10,4.5v-14.8c0.6-0.3,1.3-0.7,2-0.9v15.1
		c2-2.9,5.3-4.6,8.9-4.6c4,0,7.8,2.3,9.6,5.8c4-2.1,7.8-3.8,11.3-5.2c0.3,0.6,0.5,1.2,0.8,1.8c-14.1,5.8-27.2,13.7-38.9,23.3
		C-147.3,410.3-148.5,408.5-149.4,406.7z M-128.6,397.2c2.7-1.6,5.3-3.1,7.8-4.4c-1.5-2.9-4.5-4.8-7.8-4.8c-3.3,0-6.3,1.8-7.8,4.7
		C-133.9,394.1-131.3,395.6-128.6,397.2L-128.6,397.2z"/>
</g>
</svg>
